<svg width="28" height="28" viewBox="0 0 28 28" fill="none" xmlns="http://www.w3.org/2000/svg">
<g filter="url(#filter0_d_1451_523)">
<path d="M16.6813 3.70721L20.2756 7.30551M18.4785 1.90805C18.7073 1.63731 18.9904 1.41694 19.3096 1.26097C19.6289 1.10501 19.9773 1.01688 20.3328 1.0022C20.6882 0.987513 21.0428 1.0466 21.374 1.1757C21.7052 1.30479 22.0056 1.50106 22.2563 1.752C22.5069 2.00293 22.7023 2.30302 22.8298 2.63315C22.9573 2.96328 23.0143 3.31619 22.997 3.66941C22.9797 4.02262 22.8886 4.36838 22.7295 4.68466C22.5703 5.00093 22.3467 5.28078 22.0727 5.50636L9.9421 17.6506L5 19L6.34785 14.0523L18.4785 1.90805Z" stroke="white" stroke-width="1.83333" stroke-linecap="round" stroke-linejoin="round"/>
</g>
</svg>
