<svg width="25" height="25" viewBox="0 0 25 25" fill="none" xmlns="http://www.w3.org/2000/svg">
<rect x="0.5" y="0.213562" width="24" height="24.0449" rx="12" fill="#B8B8B8"/>
<path fill-rule="evenodd" clip-rule="evenodd" d="M18.0182 17.7542H16.1619L8.97005 10.5623L10.8263 8.70508L18.0182 15.8969V17.7542ZM9.77814 7.65792L8.98289 6.86266C8.93701 6.81666 8.8825 6.78017 8.82249 6.75526C8.76248 6.73036 8.69815 6.71754 8.63318 6.71754C8.5682 6.71754 8.50387 6.73036 8.44386 6.75526C8.38385 6.78017 8.32934 6.81666 8.28346 6.86266L7.12664 8.01948C7.08064 8.06537 7.04414 8.11987 7.01924 8.17988C6.99434 8.23989 6.98152 8.30423 6.98152 8.3692C6.98152 8.43417 6.99434 8.4985 7.01924 8.55851C7.04414 8.61852 7.08064 8.67303 7.12664 8.71891L7.92189 9.51417L9.77814 7.65792ZM18.0182 19.236H15.5484L6.07848 9.76608C5.70808 9.39556 5.5 8.89311 5.5 8.3692C5.5 7.84529 5.70808 7.34283 6.07848 6.97232L7.23629 5.81451C7.60681 5.4441 8.10927 5.23602 8.63318 5.23602C9.15708 5.23602 9.65954 5.4441 10.0301 5.81451L19.5 15.2845V19.236H18.0182Z" fill="#2F2F2F"/>
</svg>
