<svg width="22" height="24" viewBox="0 0 22 24" fill="none" xmlns="http://www.w3.org/2000/svg">
<path d="M19.5556 13.9032V9.6C19.5556 5.7396 16.885 2.4876 13.2672 1.5096C12.9091 0.624 12.034 0 11 0C9.966 0 9.09089 0.624 8.73278 1.5096C5.115 2.4888 2.44445 5.7396 2.44445 9.6V13.9032L0.358112 15.9516C0.244394 16.0628 0.154209 16.1951 0.0927488 16.3407C0.0312891 16.4863 -0.000231549 16.6424 1.28049e-06 16.8V19.2C1.28049e-06 19.5183 0.128771 19.8235 0.357982 20.0485C0.587193 20.2736 0.89807 20.4 1.22222 20.4H20.7778C21.1019 20.4 21.4128 20.2736 21.642 20.0485C21.8712 19.8235 22 19.5183 22 19.2V16.8C22.0002 16.6424 21.9687 16.4863 21.9073 16.3407C21.8458 16.1951 21.7556 16.0628 21.6419 15.9516L19.5556 13.9032ZM19.5556 18H2.44445V17.2968L4.53078 15.2484C4.6445 15.1372 4.73468 15.0049 4.79614 14.8593C4.8576 14.7137 4.88912 14.5576 4.88889 14.4V9.6C4.88889 6.2916 7.63033 3.6 11 3.6C14.3697 3.6 17.1111 6.2916 17.1111 9.6V14.4C17.1111 14.7192 17.2394 15.024 17.4692 15.2484L19.5556 17.2968V18ZM11 24C11.7569 24.0009 12.4953 23.7703 13.1126 23.3402C13.7299 22.9101 14.1953 22.3018 14.4442 21.6H7.55578C7.8047 22.3018 8.27014 22.9101 8.8874 23.3402C9.50466 23.7703 10.2431 24.0009 11 24Z" fill="#2F2F2F"/>
</svg>
