<svg width="26" height="22" viewBox="0 0 26 22" fill="none" xmlns="http://www.w3.org/2000/svg">
<path d="M25.1333 20.0277H23.4V7.38885C23.6299 7.38885 23.8503 7.29373 24.0128 7.12443C24.1754 6.95513 24.2667 6.7255 24.2667 6.48607C24.2667 6.24664 24.1754 6.01701 24.0128 5.84771C23.8503 5.67841 23.6299 5.58329 23.4 5.58329H18.2V1.97218C18.4299 1.97218 18.6503 1.87707 18.8128 1.70776C18.9754 1.53846 19.0667 1.30884 19.0667 1.0694C19.0667 0.829972 18.9754 0.600347 18.8128 0.431044C18.6503 0.26174 18.4299 0.166626 18.2 0.166626H2.6C2.37015 0.166626 2.14971 0.26174 1.98717 0.431044C1.82464 0.600347 1.73333 0.829972 1.73333 1.0694C1.73333 1.30884 1.82464 1.53846 1.98717 1.70776C2.14971 1.87707 2.37015 1.97218 2.6 1.97218V20.0277H0.866667C0.636812 20.0277 0.416372 20.1229 0.253841 20.2922C0.0913092 20.4615 0 20.6911 0 20.9305C0 21.1699 0.0913092 21.3996 0.253841 21.5689C0.416372 21.7382 0.636812 21.8333 0.866667 21.8333H25.1333C25.3632 21.8333 25.5836 21.7382 25.7462 21.5689C25.9087 21.3996 26 21.1699 26 20.9305C26 20.6911 25.9087 20.4615 25.7462 20.2922C25.5836 20.1229 25.3632 20.0277 25.1333 20.0277ZM21.6667 7.38885V20.0277H18.2V7.38885H21.6667ZM4.33333 1.97218H16.4667V20.0277H13.8667V14.6111C13.8667 14.3716 13.7754 14.142 13.6128 13.9727C13.4503 13.8034 13.2299 13.7083 13 13.7083H7.8C7.57015 13.7083 7.34971 13.8034 7.18717 13.9727C7.02464 14.142 6.93333 14.3716 6.93333 14.6111V20.0277H4.33333V1.97218ZM12.1333 20.0277H8.66667V15.5138H12.1333V20.0277ZM6.06667 5.58329C6.06667 5.34386 6.15798 5.11424 6.32051 4.94493C6.48304 4.77563 6.70348 4.68052 6.93333 4.68052H8.66667C8.89652 4.68052 9.11696 4.77563 9.27949 4.94493C9.44202 5.11424 9.53333 5.34386 9.53333 5.58329C9.53333 5.82272 9.44202 6.05235 9.27949 6.22165C9.11696 6.39096 8.89652 6.48607 8.66667 6.48607H6.93333C6.70348 6.48607 6.48304 6.39096 6.32051 6.22165C6.15798 6.05235 6.06667 5.82272 6.06667 5.58329ZM11.2667 5.58329C11.2667 5.34386 11.358 5.11424 11.5205 4.94493C11.683 4.77563 11.9035 4.68052 12.1333 4.68052H13.8667C14.0965 4.68052 14.317 4.77563 14.4795 4.94493C14.642 5.11424 14.7333 5.34386 14.7333 5.58329C14.7333 5.82272 14.642 6.05235 14.4795 6.22165C14.317 6.39096 14.0965 6.48607 13.8667 6.48607H12.1333C11.9035 6.48607 11.683 6.39096 11.5205 6.22165C11.358 6.05235 11.2667 5.82272 11.2667 5.58329ZM6.06667 10.0972C6.06667 9.85775 6.15798 9.62813 6.32051 9.45882C6.48304 9.28952 6.70348 9.1944 6.93333 9.1944H8.66667C8.89652 9.1944 9.11696 9.28952 9.27949 9.45882C9.44202 9.62813 9.53333 9.85775 9.53333 10.0972C9.53333 10.3366 9.44202 10.5662 9.27949 10.7355C9.11696 10.9048 8.89652 11 8.66667 11H6.93333C6.70348 11 6.48304 10.9048 6.32051 10.7355C6.15798 10.5662 6.06667 10.3366 6.06667 10.0972ZM11.2667 10.0972C11.2667 9.85775 11.358 9.62813 11.5205 9.45882C11.683 9.28952 11.9035 9.1944 12.1333 9.1944H13.8667C14.0965 9.1944 14.317 9.28952 14.4795 9.45882C14.642 9.62813 14.7333 9.85775 14.7333 10.0972C14.7333 10.3366 14.642 10.5662 14.4795 10.7355C14.317 10.9048 14.0965 11 13.8667 11H12.1333C11.9035 11 11.683 10.9048 11.5205 10.7355C11.358 10.5662 11.2667 10.3366 11.2667 10.0972Z" fill="#F6F6F6"/>
</svg>
