<svg width="40" height="32" viewBox="0 0 40 32" fill="none" xmlns="http://www.w3.org/2000/svg">
<path d="M38.6667 29.3333H36V10.6667C36.3536 10.6667 36.6928 10.5262 36.9428 10.2761C37.1929 10.0261 37.3333 9.68696 37.3333 9.33333C37.3333 8.97971 37.1929 8.64057 36.9428 8.39052C36.6928 8.14048 36.3536 8 36 8H28V2.66667C28.3536 2.66667 28.6928 2.52619 28.9428 2.27614C29.1929 2.02609 29.3333 1.68696 29.3333 1.33333C29.3333 0.979711 29.1929 0.640573 28.9428 0.390525C28.6928 0.140476 28.3536 0 28 0H4C3.64638 0 3.30724 0.140476 3.05719 0.390525C2.80714 0.640573 2.66667 0.979711 2.66667 1.33333C2.66667 1.68696 2.80714 2.02609 3.05719 2.27614C3.30724 2.52619 3.64638 2.66667 4 2.66667V29.3333H1.33333C0.979711 29.3333 0.640573 29.4738 0.390524 29.7239C0.140476 29.9739 0 30.313 0 30.6667C0 31.0203 0.140476 31.3594 0.390524 31.6095C0.640573 31.8595 0.979711 32 1.33333 32H38.6667C39.0203 32 39.3594 31.8595 39.6095 31.6095C39.8595 31.3594 40 31.0203 40 30.6667C40 30.313 39.8595 29.9739 39.6095 29.7239C39.3594 29.4738 39.0203 29.3333 38.6667 29.3333ZM33.3333 10.6667V29.3333H28V10.6667H33.3333ZM6.66667 2.66667H25.3333V29.3333H21.3333V21.3333C21.3333 20.9797 21.1929 20.6406 20.9428 20.3905C20.6928 20.1405 20.3536 20 20 20H12C11.6464 20 11.3072 20.1405 11.0572 20.3905C10.8071 20.6406 10.6667 20.9797 10.6667 21.3333V29.3333H6.66667V2.66667ZM18.6667 29.3333H13.3333V22.6667H18.6667V29.3333ZM9.33333 8C9.33333 7.64638 9.47381 7.30724 9.72386 7.05719C9.97391 6.80714 10.313 6.66667 10.6667 6.66667H13.3333C13.687 6.66667 14.0261 6.80714 14.2761 7.05719C14.5262 7.30724 14.6667 7.64638 14.6667 8C14.6667 8.35362 14.5262 8.69276 14.2761 8.94281C14.0261 9.19286 13.687 9.33333 13.3333 9.33333H10.6667C10.313 9.33333 9.97391 9.19286 9.72386 8.94281C9.47381 8.69276 9.33333 8.35362 9.33333 8ZM17.3333 8C17.3333 7.64638 17.4738 7.30724 17.7239 7.05719C17.9739 6.80714 18.313 6.66667 18.6667 6.66667H21.3333C21.687 6.66667 22.0261 6.80714 22.2761 7.05719C22.5262 7.30724 22.6667 7.64638 22.6667 8C22.6667 8.35362 22.5262 8.69276 22.2761 8.94281C22.0261 9.19286 21.687 9.33333 21.3333 9.33333H18.6667C18.313 9.33333 17.9739 9.19286 17.7239 8.94281C17.4738 8.69276 17.3333 8.35362 17.3333 8ZM9.33333 14.6667C9.33333 14.313 9.47381 13.9739 9.72386 13.7239C9.97391 13.4738 10.313 13.3333 10.6667 13.3333H13.3333C13.687 13.3333 14.0261 13.4738 14.2761 13.7239C14.5262 13.9739 14.6667 14.313 14.6667 14.6667C14.6667 15.0203 14.5262 15.3594 14.2761 15.6095C14.0261 15.8595 13.687 16 13.3333 16H10.6667C10.313 16 9.97391 15.8595 9.72386 15.6095C9.47381 15.3594 9.33333 15.0203 9.33333 14.6667ZM17.3333 14.6667C17.3333 14.313 17.4738 13.9739 17.7239 13.7239C17.9739 13.4738 18.313 13.3333 18.6667 13.3333H21.3333C21.687 13.3333 22.0261 13.4738 22.2761 13.7239C22.5262 13.9739 22.6667 14.313 22.6667 14.6667C22.6667 15.0203 22.5262 15.3594 22.2761 15.6095C22.0261 15.8595 21.687 16 21.3333 16H18.6667C18.313 16 17.9739 15.8595 17.7239 15.6095C17.4738 15.3594 17.3333 15.0203 17.3333 14.6667Z" fill="#232323"/>
</svg>
