<svg width="27" height="27" viewBox="0 0 27 27" fill="none" xmlns="http://www.w3.org/2000/svg">
<path opacity="0.2" fill-rule="evenodd" clip-rule="evenodd" d="M5.20085 6.20085V22.8402H21.8402V6.20085H5.20085ZM2.08097 2.04102C1.80516 2.04102 1.54064 2.15058 1.34561 2.34561C1.15058 2.54064 1.04102 2.80516 1.04102 3.08097V25.96C1.04102 26.2359 1.15058 26.5004 1.34561 26.6954C1.54064 26.8904 1.80516 27 2.08097 27H24.96C25.2359 27 25.5004 26.8904 25.6954 26.6954C25.8904 26.5004 26 26.2359 26 25.96V3.08097C26 2.80516 25.8904 2.54064 25.6954 2.34561C25.5004 2.15058 25.2359 2.04102 24.96 2.04102H2.08097Z" fill="#2F2F2F"/>
<path fill-rule="evenodd" clip-rule="evenodd" d="M0 2.04045C0 1.76463 0.109567 1.50011 0.304597 1.30508C0.499627 1.11006 0.764144 1.00049 1.03996 1.00049H21.8391C22.1149 1.00049 22.3794 1.11006 22.5745 1.30508C22.7695 1.50011 22.8791 1.76463 22.8791 2.04045V22.8396C22.8791 23.1154 22.7695 23.3799 22.5745 23.575C22.3794 23.77 22.1149 23.8796 21.8391 23.8796H1.03996C0.764144 23.8796 0.499627 23.77 0.304597 23.575C0.109567 23.3799 0 23.1154 0 22.8396V2.04045ZM2.07992 3.0804V21.7996H20.7992V3.0804H2.07992Z" fill="#2F2F2F"/>
<path d="M23.9047 0L27 2.01717L13.5794 20H10.4841L3 10.2575L6.09528 7.57511L12.0318 12.7253L23.9047 0Z" fill="#383838"/>
</svg>
