<svg width="40" height="40" viewBox="0 0 40 40" fill="none" xmlns="http://www.w3.org/2000/svg">
<g clip-path="url(#clip0_2112_298)">
<path fill-rule="evenodd" clip-rule="evenodd" d="M24.9997 9.99994C25 11.0343 24.6796 12.0433 24.0827 12.888C23.4857 13.7327 22.6415 14.3716 21.6664 14.7166V18.3333H26.6664C27.9925 18.3333 29.2642 18.8601 30.2019 19.7977C31.1396 20.7354 31.6664 22.0072 31.6664 23.3333V25.2833C32.7789 25.6764 33.7165 26.4503 34.3137 27.468C34.9108 28.4856 35.1289 29.6816 34.9294 30.8446C34.73 32.0075 34.1258 33.0625 33.2237 33.8231C32.3216 34.5836 31.1796 35.0008 29.9997 35.0008C28.8198 35.0008 27.6779 34.5836 26.7758 33.8231C25.8737 33.0625 25.2695 32.0075 25.07 30.8446C24.8706 29.6816 25.0887 28.4856 25.6858 27.468C26.2829 26.4503 27.2206 25.6764 28.3331 25.2833V23.3333C28.3331 22.8912 28.1575 22.4673 27.8449 22.1548C27.5323 21.8422 27.1084 21.6666 26.6664 21.6666H13.3331C12.891 21.6666 12.4671 21.8422 12.1545 22.1548C11.842 22.4673 11.6664 22.8912 11.6664 23.3333V25.2833C12.7789 25.6764 13.7165 26.4503 14.3137 27.468C14.9108 28.4856 15.1289 29.6816 14.9294 30.8446C14.7299 32.0075 14.1258 33.0625 13.2237 33.8231C12.3216 34.5836 11.1796 35.0008 9.99972 35.0008C8.8198 35.0008 7.67787 34.5836 6.77577 33.8231C5.87367 33.0625 5.2695 32.0075 5.07004 30.8446C4.87058 29.6816 5.08868 28.4856 5.68579 27.468C6.2829 26.4503 7.22057 25.6764 8.33306 25.2833V23.3333C8.33306 22.0072 8.85984 20.7354 9.79752 19.7977C10.7352 18.8601 12.007 18.3333 13.3331 18.3333H18.3331V14.7166C17.4683 14.4113 16.7041 13.8742 16.1241 13.1639C15.544 12.4536 15.1704 11.5975 15.0441 10.6892C14.9177 9.78086 15.0436 8.8553 15.4078 8.01368C15.772 7.17206 16.3606 6.44678 17.1093 5.91712C17.8579 5.38746 18.7377 5.07382 19.6526 5.01048C20.5675 4.94714 21.4821 5.13655 22.2966 5.55799C23.1111 5.97943 23.794 6.61669 24.2708 7.40009C24.7475 8.18349 24.9997 9.08288 24.9997 9.99994ZM19.9997 8.33327C19.5577 8.33327 19.1338 8.50887 18.8212 8.82143C18.5087 9.13399 18.3331 9.55791 18.3331 9.99994C18.3331 10.442 18.5087 10.8659 18.8212 11.1785C19.1338 11.491 19.5577 11.6666 19.9997 11.6666C20.4418 11.6666 20.8657 11.491 21.1782 11.1785C21.4908 10.8659 21.6664 10.442 21.6664 9.99994C21.6664 9.55791 21.4908 9.13399 21.1782 8.82143C20.8657 8.50887 20.4418 8.33327 19.9997 8.33327ZM9.99972 28.3333C9.5577 28.3333 9.13377 28.5089 8.82121 28.8214C8.50865 29.134 8.33306 29.5579 8.33306 29.9999C8.33306 30.442 8.50865 30.8659 8.82121 31.1785C9.13377 31.491 9.5577 31.6666 9.99972 31.6666C10.4418 31.6666 10.8657 31.491 11.1782 31.1785C11.4908 30.8659 11.6664 30.442 11.6664 29.9999C11.6664 29.5579 11.4908 29.134 11.1782 28.8214C10.8657 28.5089 10.4418 28.3333 9.99972 28.3333ZM29.9997 28.3333C29.5577 28.3333 29.1338 28.5089 28.8212 28.8214C28.5086 29.134 28.3331 29.5579 28.3331 29.9999C28.3331 30.442 28.5086 30.8659 28.8212 31.1785C29.1338 31.491 29.5577 31.6666 29.9997 31.6666C30.4418 31.6666 30.8657 31.491 31.1782 31.1785C31.4908 30.8659 31.6664 30.442 31.6664 29.9999C31.6664 29.5579 31.4908 29.134 31.1782 28.8214C30.8657 28.5089 30.4418 28.3333 29.9997 28.3333Z" fill="#232323"/>
</g>
<defs>
<clipPath id="clip0_2112_298">
<rect width="40" height="40" fill="white"/>
</clipPath>
</defs>
</svg>
