<svg width="27" height="28" viewBox="0 0 27 28" fill="none" xmlns="http://www.w3.org/2000/svg">
<g clip-path="url(#clip0_2112_298)">
<path fill-rule="evenodd" clip-rule="evenodd" d="M16.8742 7.24948C16.8744 7.94768 16.6581 8.62876 16.2552 9.19894C15.8522 9.76912 15.2824 10.2003 14.6242 10.4332V12.8745H17.9992C18.8943 12.8745 19.7527 13.2301 20.3857 13.863C21.0186 14.4959 21.3742 15.3544 21.3742 16.2495V17.5657C22.1251 17.8311 22.758 18.3535 23.1611 19.0404C23.5641 19.7273 23.7113 20.5346 23.5767 21.3196C23.4421 22.1046 23.0343 22.8167 22.4253 23.3301C21.8164 23.8435 21.0456 24.125 20.2492 24.125C19.4527 24.125 18.6819 23.8435 18.073 23.3301C17.4641 22.8167 17.0563 22.1046 16.9216 21.3196C16.787 20.5346 16.9342 19.7273 17.3373 19.0404C17.7403 18.3535 18.3732 17.8311 19.1242 17.5657V16.2495C19.1242 15.9511 19.0057 15.665 18.7947 15.454C18.5837 15.243 18.2975 15.1245 17.9992 15.1245H8.99918C8.70081 15.1245 8.41466 15.243 8.20368 15.454C7.9927 15.665 7.87418 15.9511 7.87418 16.2495V17.5657C8.62511 17.8311 9.25803 18.3535 9.66108 19.0404C10.0641 19.7273 10.2114 20.5346 10.0767 21.3196C9.94208 22.1046 9.53426 22.8167 8.92535 23.3301C8.31643 23.8435 7.54563 24.125 6.74918 24.125C5.95273 24.125 5.18193 23.8435 4.57301 23.3301C3.96409 22.8167 3.55628 22.1046 3.42164 21.3196C3.28701 20.5346 3.43422 19.7273 3.83727 19.0404C4.24032 18.3535 4.87325 17.8311 5.62418 17.5657V16.2495C5.62418 15.3544 5.97976 14.4959 6.61269 13.863C7.24563 13.2301 8.10407 12.8745 8.99918 12.8745H12.3742V10.4332C11.7905 10.2272 11.2747 9.8646 10.8831 9.38515C10.4916 8.9057 10.2394 8.32783 10.1541 7.71472C10.0688 7.10161 10.1538 6.47685 10.3996 5.90876C10.6455 5.34066 11.0428 4.8511 11.5481 4.49358C12.0535 4.13606 12.6473 3.92435 13.2649 3.8816C13.8824 3.83885 14.4998 3.96669 15.0496 4.25117C15.5994 4.53564 16.0603 4.96579 16.3821 5.49459C16.7039 6.02338 16.8741 6.63047 16.8742 7.24948ZM13.4992 6.12448C13.2008 6.12448 12.9147 6.24301 12.7037 6.45399C12.4927 6.66497 12.3742 6.95111 12.3742 7.24948C12.3742 7.54785 12.4927 7.834 12.7037 8.04498C12.9147 8.25596 13.2008 8.37448 13.4992 8.37448C13.7975 8.37448 14.0837 8.25596 14.2947 8.04498C14.5057 7.834 14.6242 7.54785 14.6242 7.24948C14.6242 6.95111 14.5057 6.66497 14.2947 6.45399C14.0837 6.24301 13.7975 6.12448 13.4992 6.12448ZM6.74918 19.6245C6.45081 19.6245 6.16466 19.743 5.95368 19.954C5.74271 20.165 5.62418 20.4511 5.62418 20.7495C5.62418 21.0479 5.74271 21.334 5.95368 21.545C6.16466 21.756 6.45081 21.8745 6.74918 21.8745C7.04755 21.8745 7.33369 21.756 7.54467 21.545C7.75565 21.334 7.87418 21.0479 7.87418 20.7495C7.87418 20.4511 7.75565 20.165 7.54467 19.954C7.33369 19.743 7.04755 19.6245 6.74918 19.6245ZM20.2492 19.6245C19.9508 19.6245 19.6647 19.743 19.4537 19.954C19.2427 20.165 19.1242 20.4511 19.1242 20.7495C19.1242 21.0479 19.2427 21.334 19.4537 21.545C19.6647 21.756 19.9508 21.8745 20.2492 21.8745C20.5475 21.8745 20.8337 21.756 21.0447 21.545C21.2557 21.334 21.3742 21.0479 21.3742 20.7495C21.3742 20.4511 21.2557 20.165 21.0447 19.954C20.8337 19.743 20.5475 19.6245 20.2492 19.6245Z" fill="#F6F6F6"/>
</g>
<defs>
<clipPath id="clip0_2112_298">
<rect width="27" height="27" fill="white" transform="translate(0 0.5)"/>
</clipPath>
</defs>
</svg>
