<svg width="19" height="20" viewBox="0 0 19 20" fill="none" xmlns="http://www.w3.org/2000/svg">
    <path d="M8.58398 5.41659H10.4173V7.24992H8.58398V5.41659ZM8.58398 9.08325H10.4173V14.5833H8.58398V9.08325ZM9.50065 0.833252C4.44065 0.833252 0.333984 4.93992 0.333984 9.99992C0.333984 15.0599 4.44065 19.1666 9.50065 19.1666C14.5607 19.1666 18.6673 15.0599 18.6673 9.99992C18.6673 4.93992 14.5607 0.833252 9.50065 0.833252ZM9.50065 17.3333C5.45815 17.3333 2.16732 14.0424 2.16732 9.99992C2.16732 5.95742 5.45815 2.66659 9.50065 2.66659C13.5432 2.66659 16.834 5.95742 16.834 9.99992C16.834 14.0424 13.5432 17.3333 9.50065 17.3333Z" fill="#444444"/>
</svg>
