<svg width="20" height="20" viewBox="0 0 20 20" fill="none" xmlns="http://www.w3.org/2000/svg">
    <path d="M12.7 3.7004L16.3001 7.30049M18.2567 5.33124C18.7325 4.85551 18.9999 4.21024 19 3.53737C19.0001 2.8645 18.7329 2.21916 18.2571 1.74331C17.7814 1.26746 17.1362 1.00008 16.4633 1C15.7904 0.999916 15.1451 1.26713 14.6693 1.74286L2.65776 13.7572C2.44879 13.9656 2.29426 14.2221 2.20775 14.5042L1.01884 18.4211C0.995581 18.499 0.993824 18.5817 1.01376 18.6604C1.03369 18.7392 1.07457 18.8111 1.13206 18.8685C1.18955 18.9258 1.2615 18.9666 1.34029 18.9864C1.41907 19.0062 1.50175 19.0043 1.57955 18.981L5.49728 17.7929C5.77914 17.7072 6.03564 17.5536 6.24429 17.3456L18.2567 5.33124Z" stroke="#444444" stroke-width="1.83333" stroke-linecap="round" stroke-linejoin="round"/>
</svg>
