<svg width="36" height="13" viewBox="0 0 36 13" fill="none" xmlns="http://www.w3.org/2000/svg">
<path d="M9 9.47529C10.2426 9.47529 11.25 8.45674 11.25 7.20029C11.25 5.94385 10.2426 4.92529 9 4.92529C7.75736 4.92529 6.75 5.94385 6.75 7.20029C6.75 8.45674 7.75736 9.47529 9 9.47529Z" fill="#363636"/>
<path d="M18 9.47529C19.2426 9.47529 20.25 8.45674 20.25 7.20029C20.25 5.94385 19.2426 4.92529 18 4.92529C16.7574 4.92529 15.75 5.94385 15.75 7.20029C15.75 8.45674 16.7574 9.47529 18 9.47529Z" fill="#363636"/>
<path d="M27 9.47529C28.2426 9.47529 29.25 8.45674 29.25 7.20029C29.25 5.94385 28.2426 4.92529 27 4.92529C25.7574 4.92529 24.75 5.94385 24.75 7.20029C24.75 8.45674 25.7574 9.47529 27 9.47529Z" fill="#363636"/>
</svg>
