<svg width="28" height="28" viewBox="0 0 28 28" style="filter: invert(1);" fill="none" xmlns="http://www.w3.org/2000/svg">
<path d="M6.125 3.5V22.75H21.875V3.5H6.125ZM5.25 1.75H22.75C22.9821 1.75 23.2046 1.84219 23.3687 2.00628C23.5328 2.17038 23.625 2.39294 23.625 2.625V23.625C23.625 23.8571 23.5328 24.0796 23.3687 24.2437C23.2046 24.4078 22.9821 24.5 22.75 24.5H5.25C5.01794 24.5 4.79538 24.4078 4.63128 24.2437C4.46719 24.0796 4.375 23.8571 4.375 23.625V2.625C4.375 2.39294 4.46719 2.17038 4.63128 2.00628C4.79538 1.84219 5.01794 1.75 5.25 1.75Z" fill="#F6F6F6"/>
<path d="M1.75 22.75H26.25V24.5H1.75V22.75ZM8.75 5.25H12.25V7.875H8.75V5.25Z" fill="#F6F6F6"/>
<path d="M10.5 22.75H17.5V21C17.5 20.0717 17.1313 19.1815 16.4749 18.5251C15.8185 17.8688 14.9283 17.5 14 17.5C13.0717 17.5 12.1815 17.8688 11.5251 18.5251C10.8687 19.1815 10.5 20.0717 10.5 21V22.75ZM14 15.75C15.3924 15.75 16.7277 16.3031 17.7123 17.2877C18.6969 18.2723 19.25 19.6076 19.25 21V24.5H8.75V21C8.75 19.6076 9.30312 18.2723 10.2877 17.2877C11.2723 16.3031 12.6076 15.75 14 15.75ZM8.75 10.5H12.25V13.125H8.75V10.5ZM15.75 5.25H19.25V7.875H15.75V5.25ZM15.75 10.5H19.25V13.125H15.75V10.5Z" fill="#F6F6F6"/>
</svg>
