<svg width="26" height="24" viewBox="0 0 26 24" fill="none" xmlns="http://www.w3.org/2000/svg">
<path d="M13 16.0539C13.261 16.0539 13.4743 15.9733 13.6399 15.8121C13.8055 15.651 13.8883 15.4435 13.8883 15.1896C13.8883 14.9356 13.8055 14.7276 13.6399 14.5656C13.4743 14.4035 13.261 14.3229 13 14.3238C12.739 14.3248 12.5257 14.4053 12.3601 14.5656C12.1945 14.7258 12.1117 14.9338 12.1117 15.1896C12.1117 15.4453 12.1945 15.6529 12.3601 15.8121C12.5257 15.9714 12.739 16.052 13 16.0539ZM12.2778 11.8925H13.7222V3.35188H12.2778V11.8925ZM0 24V2.26972C0 1.62324 0.222926 1.08356 0.668778 0.6507C1.11463 0.217837 1.6693 0.000936933 2.33278 0H23.6672C24.3317 0 24.8863 0.2169 25.3312 0.6507C25.7761 1.0845 25.999 1.62417 26 2.26972V17.4059C26 18.0524 25.7776 18.5925 25.3327 19.0263C24.8878 19.4601 24.3326 19.6765 23.6672 19.6756H4.44456L0 24ZM3.82778 18.2702H23.6672C23.8887 18.2702 24.0924 18.1802 24.2782 18.0003C24.4641 17.8205 24.5565 17.6223 24.5556 17.4059V2.26972C24.5556 2.05422 24.4631 1.85606 24.2782 1.67524C24.0933 1.49441 23.8897 1.40446 23.6672 1.4054H2.33278C2.1113 1.4054 1.90763 1.49534 1.72178 1.67524C1.53593 1.85513 1.44348 2.05329 1.44444 2.26972V20.5821L3.82778 18.2702Z" fill="#F6F6F6"/>
</svg>
