<svg width="40" height="38" viewBox="0 0 40 38" fill="none" xmlns="http://www.w3.org/2000/svg">
<path d="M20 25.4186C20.4015 25.4186 20.7296 25.2911 20.9844 25.0359C21.2393 24.7807 21.3667 24.4521 21.3667 24.0501C21.3667 23.6481 21.2393 23.3188 20.9844 23.0621C20.7296 22.8055 20.4015 22.6779 20 22.6794C19.5985 22.6809 19.2704 22.8085 19.0156 23.0621C18.7607 23.3158 18.6333 23.6451 18.6333 24.0501C18.6333 24.4551 18.7607 24.7837 19.0156 25.0359C19.2704 25.2881 19.5985 25.4157 20 25.4186ZM18.8889 18.8298H21.1111V5.30714H18.8889V18.8298ZM0 38V3.59372C0 2.57012 0.342963 1.71564 1.02889 1.03027C1.71482 0.344908 2.56815 0.00148348 3.58889 0H36.4111C37.4333 0 38.2867 0.343425 38.9711 1.03027C39.6556 1.71712 39.9985 2.57161 40 3.59372V27.5593C40 28.5829 39.6578 29.4381 38.9733 30.125C38.2889 30.8118 37.4348 31.1545 36.4111 31.153H6.83778L0 38ZM5.88889 28.9278H36.4111C36.7519 28.9278 37.0652 28.7854 37.3511 28.5006C37.637 28.2157 37.7793 27.902 37.7778 27.5593V3.59372C37.7778 3.25252 37.6356 2.93877 37.3511 2.65246C37.0667 2.36615 36.7533 2.22373 36.4111 2.22522H3.58889C3.24815 2.22522 2.93481 2.36763 2.64889 2.65246C2.36296 2.93728 2.22074 3.25104 2.22222 3.59372V32.5883L5.88889 28.9278Z" fill="black"/>
</svg>
