<svg width="160" height="160" viewBox="0 0 160 160" fill="none" xmlns="http://www.w3.org/2000/svg">
<path d="M30 33.3335V146.667H130V33.3335H30Z" stroke="#D9D9D9" stroke-width="13.3333" stroke-linejoin="round"/>
<path d="M66.6668 66.6668V110M93.3335 66.6668V110M13.3335 33.3335H146.667" stroke="#D9D9D9" stroke-width="13.3333" stroke-linecap="round" stroke-linejoin="round"/>
<path d="M53.3335 33.3335L64.2968 13.3335H95.9235L106.667 33.3335H53.3335Z" stroke="#D9D9D9" stroke-width="13.3333" stroke-linejoin="round"/>
<path d="M46.6668 26.6668C46.6668 23.1306 48.0716 19.7392 50.5721 17.2387C53.0726 14.7383 56.4639 13.3335 60.0002 13.3335H100C103.536 13.3335 106.928 14.7383 109.428 17.2387C111.929 19.7392 113.333 23.1306 113.333 26.6668V40.0002H140C141.768 40.0002 143.464 40.7025 144.714 41.9528C145.964 43.203 146.667 44.8987 146.667 46.6668C146.667 48.4349 145.964 50.1306 144.714 51.3809C143.464 52.6311 141.768 53.3335 140 53.3335H132.873L127.093 134.28C126.854 137.644 125.349 140.792 122.881 143.091C120.413 145.389 117.166 146.667 113.793 146.667H46.2002C42.8278 146.667 39.5806 145.389 37.1127 143.091C34.6448 140.792 33.1396 137.644 32.9002 134.28L27.1335 53.3335H20.0002C18.2321 53.3335 16.5364 52.6311 15.2861 51.3809C14.0359 50.1306 13.3335 48.4349 13.3335 46.6668C13.3335 44.8987 14.0359 43.203 15.2861 41.9528C16.5364 40.7025 18.2321 40.0002 20.0002 40.0002H46.6668V26.6668ZM60.0002 40.0002H100V26.6668H60.0002V40.0002ZM40.4935 53.3335L46.2068 133.333H113.8L119.513 53.3335H40.4935ZM66.6668 66.6668C68.4349 66.6668 70.1306 67.3692 71.3809 68.6194C72.6311 69.8697 73.3335 71.5654 73.3335 73.3335V113.333C73.3335 115.102 72.6311 116.797 71.3809 118.048C70.1306 119.298 68.4349 120 66.6668 120C64.8987 120 63.203 119.298 61.9528 118.048C60.7025 116.797 60.0002 115.102 60.0002 113.333V73.3335C60.0002 71.5654 60.7025 69.8697 61.9528 68.6194C63.203 67.3692 64.8987 66.6668 66.6668 66.6668ZM93.3335 66.6668C95.1016 66.6668 96.7973 67.3692 98.0475 68.6194C99.2978 69.8697 100 71.5654 100 73.3335V113.333C100 115.102 99.2978 116.797 98.0475 118.048C96.7973 119.298 95.1016 120 93.3335 120C91.5654 120 89.8697 119.298 88.6195 118.048C87.3692 116.797 86.6668 115.102 86.6668 113.333V73.3335C86.6668 71.5654 87.3692 69.8697 88.6195 68.6194C89.8697 67.3692 91.5654 66.6668 93.3335 66.6668Z" fill="#D9D9D9"/>
</svg>
