<svg width="160" height="160" viewBox="0 0 160 160" fill="none" xmlns="http://www.w3.org/2000/svg">
<path d="M76.6668 26.6668C70.4784 26.6668 64.5435 29.1252 60.1677 33.501C55.7918 37.8769 53.3335 43.8118 53.3335 50.0002C53.3335 56.1885 55.7918 62.1235 60.1677 66.4993C64.5435 70.8752 70.4784 73.3335 76.6668 73.3335C82.8552 73.3335 88.7901 70.8752 93.166 66.4993C97.5418 62.1235 100 56.1885 100 50.0002C100 43.8118 97.5418 37.8769 93.166 33.501C88.7901 29.1252 82.8552 26.6668 76.6668 26.6668ZM40.0002 50.0002C40.0002 40.2756 43.8632 30.9492 50.7396 24.0729C57.6159 17.1966 66.9422 13.3335 76.6668 13.3335C86.3914 13.3335 95.7178 17.1966 102.594 24.0729C109.47 30.9492 113.334 40.2756 113.334 50.0002C113.334 59.7248 109.47 69.0511 102.594 75.9274C95.7178 82.8037 86.3914 86.6668 76.6668 86.6668C66.9422 86.6668 57.6159 82.8037 50.7396 75.9274C43.8632 69.0511 40.0002 59.7248 40.0002 50.0002ZM120 96.6668C115.959 96.6652 111.986 97.7134 108.471 99.7088C104.956 101.704 102.02 104.578 99.9502 108.05C97.8802 111.521 96.7474 115.47 96.6626 119.511C96.5779 123.552 97.5442 127.545 99.4668 131.1L131.1 99.4735C127.691 97.6306 123.876 96.666 120 96.6668ZM140.534 108.9L108.9 140.527C113.322 142.924 118.399 143.828 123.376 143.105C128.353 142.381 132.963 140.069 136.52 136.513C140.076 132.957 142.388 128.347 143.111 123.37C143.835 118.392 142.93 113.322 140.534 108.9ZM83.3335 120C83.3335 115.185 84.2819 110.417 86.1246 105.968C87.9673 101.52 90.6681 97.4777 94.0729 94.0729C97.4777 90.6681 101.52 87.9673 105.968 86.1246C110.417 84.2819 115.185 83.3335 120 83.3335C124.815 83.3335 129.583 84.2819 134.032 86.1246C138.48 87.9673 142.523 90.6681 145.927 94.0729C149.332 97.4777 152.033 101.52 153.876 105.968C155.718 110.417 156.667 115.185 156.667 120C156.667 129.725 152.804 139.051 145.927 145.927C139.051 152.804 129.725 156.667 120 156.667C110.276 156.667 100.949 152.804 94.0729 145.927C87.1966 139.051 83.3335 129.725 83.3335 120ZM53.3335 106.667C46.2611 106.667 39.4783 109.476 34.4773 114.477C29.4763 119.478 26.6668 126.261 26.6668 133.334H73.6668V146.667H13.3335V133.334C13.3335 122.725 17.5478 112.551 25.0492 105.049C32.5507 97.5478 42.7248 93.3335 53.3335 93.3335H73.3335V106.667H53.3335Z" fill="#D9D9D9"/>
</svg>
