<svg width="131" height="149" viewBox="0 0 131 149" fill="none" xmlns="http://www.w3.org/2000/svg">
<path d="M95.7484 36.1654V13.1654C95.7484 11.1324 94.9518 9.1827 93.5338 7.74515C92.1159 6.30761 90.1926 5.5 88.1873 5.5H42.8132C40.8079 5.5 38.8847 6.30761 37.4667 7.74515C36.0487 9.1827 35.2521 11.1324 35.2521 13.1654V36.1654" stroke="#C8C8C8" stroke-width="10" stroke-linecap="round" stroke-linejoin="round"/>
<path d="M5 36.1655H126M110.874 135.835V36.1655H20.1259V135.835C20.1259 137.868 20.9225 139.817 22.3405 141.255C23.7585 142.692 25.6817 143.5 27.687 143.5H103.313C105.318 143.5 107.241 142.692 108.659 141.255C110.077 139.817 110.874 137.868 110.874 135.835Z" stroke="#C8C8C8" stroke-width="10" stroke-linecap="round" stroke-linejoin="round"/>
</svg>
