<svg width="160" height="160" viewBox="0 0 160 160" fill="none" xmlns="http://www.w3.org/2000/svg">
<path d="M76.6663 26.6668C70.478 26.6668 64.543 29.1252 60.1672 33.501C55.7913 37.8769 53.333 43.8118 53.333 50.0002C53.333 56.1885 55.7913 62.1235 60.1672 66.4993C64.543 70.8752 70.478 73.3335 76.6663 73.3335C82.8547 73.3335 88.7896 70.8752 93.1655 66.4993C97.5413 62.1235 99.9997 56.1885 99.9997 50.0002C99.9997 43.8118 97.5413 37.8769 93.1655 33.501C88.7896 29.1252 82.8547 26.6668 76.6663 26.6668ZM39.9997 50.0002C39.9997 40.2756 43.8628 30.9492 50.7391 24.0729C57.6154 17.1966 66.9417 13.3335 76.6663 13.3335C86.3909 13.3335 95.7173 17.1966 102.594 24.0729C109.47 30.9492 113.333 40.2756 113.333 50.0002C113.333 59.7248 109.47 69.0511 102.594 75.9274C95.7173 82.8037 86.3909 86.6668 76.6663 86.6668C66.9417 86.6668 57.6154 82.8037 50.7391 75.9274C43.8628 69.0511 39.9997 59.7248 39.9997 50.0002ZM157.713 100.6L110.573 147.74L82.2863 119.453L91.713 110.027L110.573 128.887L148.286 91.1735L157.713 100.6ZM53.333 106.667C46.2606 106.667 39.4778 109.476 34.4768 114.477C29.4759 119.478 26.6663 126.261 26.6663 133.333H80.333V146.667H13.333V133.333C13.333 122.725 17.5473 112.551 25.0487 105.049C32.5502 97.5478 42.7243 93.3335 53.333 93.3335H79.9997V106.667H53.333Z" fill="#D9D9D9"/>
</svg>
