<svg width="34" height="33" viewBox="0 0 34 33" fill="none" xmlns="http://www.w3.org/2000/svg">
<path d="M12 7.37774V30.4794M22 1.31274V24.6461M2 10.8294C2 8.37274 2 7.14608 2.655 6.42941C2.88681 6.17446 3.16882 5.97019 3.48333 5.82941C4.37 5.43608 5.535 5.82441 7.865 6.60108C9.64333 7.19441 10.5317 7.49108 11.4317 7.45941C11.7618 7.44856 12.0901 7.40501 12.4117 7.32941C13.2867 7.12108 14.0667 6.60108 15.6267 5.56274L17.93 4.02608C19.93 2.69274 20.9283 2.02608 22.075 1.87441C23.2217 1.71941 24.3617 2.09941 26.64 2.85941L28.5817 3.50608C30.2317 4.05608 31.0567 4.33108 31.5283 4.98608C32 5.64108 32 6.51108 32 8.24941V21.7977C32 24.2527 32 25.4811 31.345 26.1977C31.1129 26.4515 30.8309 26.6546 30.5167 26.7944C29.63 27.1894 28.465 26.8011 26.135 26.0244C24.3567 25.4311 23.4683 25.1344 22.5683 25.1661C22.2382 25.1769 21.9099 25.2205 21.5883 25.2961C20.7133 25.5044 19.9333 26.0244 18.3733 27.0627L16.07 28.5994C14.07 29.9327 13.0717 30.5994 11.925 30.7511C10.7783 30.9061 9.63833 30.5261 7.36 29.7661L5.41833 29.1194C3.76833 28.5694 2.94333 28.2944 2.47167 27.6394C2 26.9844 2 26.1127 2 24.3761V10.8294Z" stroke="#232323" stroke-width="2.5"/>
</svg>
