<svg width="146" height="134" viewBox="0 0 146 134" fill="none" xmlns="http://www.w3.org/2000/svg">
    <path d="M72.9948 133.5C110.358 133.5 140.661 103.735 140.661 66.9999C140.661 30.2648 110.358 0.5 72.9948 0.5C35.6318 0.5 5.32812 30.2648 5.32812 66.9999C5.32812 103.735 35.6318 133.5 72.9948 133.5Z" fill="#D9D9D9" stroke="black"/>
    <mask id="mask0_3023_1108" style="mask-type:luminance" maskUnits="userSpaceOnUse" x="12" y="15" width="122" height="107">
        <path d="M131.656 81.0002C139.302 52.482 119.239 23.907 86.844 17.1761C54.4493 10.4452 21.9899 28.1073 14.3441 56.6255C6.6982 85.1437 26.7612 113.719 59.1559 120.45C91.5507 127.18 124.01 109.518 131.656 81.0002Z" fill="white"/>
    </mask>
    <g mask="url(#mask0_3023_1108)">
        <path d="M47.8168 91.5732L45.2586 120.344H24.5156C26.6795 115.877 29.2164 110.5 31.5508 105.227C36.8058 93.3092 46.7829 91.714 47.7422 91.5826C47.7955 91.5826 47.8168 91.5826 47.8168 91.5826V91.5732Z" fill="#D3445B"/>
        <path d="M121.905 120.344H100.598L97.1973 91.2451C97.1973 91.2451 97.2186 91.2545 97.2292 91.2545C97.9221 91.3296 109.008 92.8591 114.732 105.227C117.29 110.763 119.848 116.103 121.905 120.344Z" fill="#D3445B"/>
        <path d="M102.76 120.343L71.3688 125.833L43.5801 120.343L43.6867 93.1585C44.8912 92.5016 46.3195 91.9855 47.7479 91.582C51.1695 90.6249 54.5165 90.3528 54.5165 90.3528L73.1489 92.0043L91.7813 90.3528C91.7813 90.3528 94.3075 90.5592 97.2069 91.2442C97.2175 91.2442 97.2282 91.2536 97.2388 91.2536C99.0509 91.6759 101.012 92.2952 102.6 93.1585L102.76 120.343Z" fill="#D3445B"/>
        <path d="M47.8242 91.5732L69.7823 86.4966H77.3504L97.2087 91.2541C87.0504 99.6338 61.8518 106.503 48.9541 91.9673L47.8242 91.5732Z" fill="#E8B499"/>
        <path d="M105.178 73.8568C106.33 72.2147 108.238 69.7937 109.261 68.2829C113.812 61.5641 109.901 55.6055 104.709 50.0973C100.019 45.1145 98.8468 37.7483 98.8468 37.7483C95.4039 27.764 83.732 20.8389 73.1047 20.8389C62.4774 20.8389 50.8375 27.3605 47.3945 37.3448C47.3945 37.3448 45.8383 45.2459 41.4999 50.0973C36.4688 55.7087 31.1072 65.4584 38.9311 71.6329C39.4534 72.0082 40.999 74.523 42.374 75.8274C48.1833 81.3356 49.8888 80.5662 50.3898 80.5849C51.4983 80.6318 65.6965 81.1198 73.2646 81.1386C80.79 81.1479 88.6886 81.1386 95.7663 80.5005C98.7722 80.2283 102.599 77.5634 105.178 73.8568Z" fill="#2E0B02"/>
        <path d="M62.0446 57.4726C62.1406 60.6068 59.3372 63.2154 55.777 63.3093C52.2168 63.3937 49.2535 60.9258 49.1469 57.7916C49.051 54.6575 51.8544 52.0394 55.4146 51.955C58.9748 51.8705 61.9381 54.3384 62.0446 57.4726Z" fill="#E8B499"/>
        <path d="M51.9473 56.835C51.9473 56.835 54.5161 55.7371 56.9571 59.6595" stroke="#C47268" stroke-width="0.69" stroke-linecap="round" stroke-linejoin="round"/>
        <path d="M85.584 57.6322C85.584 60.7664 88.4727 63.3094 92.0329 63.3094C95.5931 63.3094 98.4817 60.7664 98.4817 57.6322C98.4817 54.4981 95.5931 51.9551 92.0329 51.9551C88.4727 51.9551 85.584 54.4981 85.584 57.6322Z" fill="#E8B499"/>
        <path d="M95.662 56.7408C95.662 56.7408 93.0611 55.7086 90.748 59.6873" stroke="#C47268" stroke-width="0.69" stroke-linecap="round" stroke-linejoin="round"/>
        <path d="M73.6374 64.652C84.8226 64.652 93.89 56.6696 93.89 46.8229C93.89 36.9762 84.8226 28.9939 73.6374 28.9939C62.4522 28.9939 53.3848 36.9762 53.3848 46.8229C53.3848 56.6696 62.4522 64.652 73.6374 64.652Z" fill="#2E0B02"/>
        <path d="M80.0391 68.9685C80.0391 68.9685 77.2464 71.2206 74.6988 71.7742C72.1512 72.3278 69.6783 70.6294 69.6463 70.6106C69.6143 70.5918 66.6724 68.6494 66.6724 68.6494L65.4785 87.3324L65.809 87.642C70.126 91.7239 76.351 91.7802 80.7106 87.7734L81.3502 87.1916L80.0391 68.9591V68.9685Z" fill="#E8B499"/>
        <path d="M64.6797 66.1821C64.6797 66.1821 68.2612 77.1048 74.6461 76.9922C79.9011 76.9077 81.3615 66.7264 81.3615 66.7264L64.6797 66.1821Z" fill="#966050"/>
        <path d="M91.2252 47.0198C91.2572 53.1661 90.2552 58.4679 89.2319 62.2308C88.2299 65.9186 85.3839 68.5085 81.3547 70.5917L80.6192 70.9764C76.3448 73.1909 70.8127 73.266 66.453 71.1735C62.0507 69.0621 58.9702 66.2658 58.0002 62.3152C56.2414 55.1367 56.0069 47.1699 56.0069 47.1699C56.0069 47.1699 54.5359 30.5514 73.5308 30.7672C92.5256 30.983 91.2252 47.0104 91.2252 47.0104V47.0198Z" fill="#E8B499"/>
        <path d="M72.0898 56.1108V58.5506H73.9552" fill="#1C2238"/>
        <path d="M72.0898 56.1108V58.5506H73.9552" stroke="#C47268" stroke-width="0.69" stroke-linecap="round" stroke-linejoin="round"/>
        <path d="M59.1953 46.8798L69.2363 46.0822C69.2363 46.0822 68.341 43.7926 64.2798 44.1585C60.1227 44.5433 59.1953 46.8704 59.1953 46.8704V46.8798Z" fill="#2E0B02"/>
        <path d="M86.8027 46.8798L76.7617 46.0822C76.7617 46.0822 77.6571 43.7926 81.7183 44.1585C85.8754 44.5433 86.8027 46.8704 86.8027 46.8704V46.8798Z" fill="#2E0B02"/>
        <path d="M67.543 60.8135H78.5114C78.5114 60.8135 78.0956 63.3095 72.83 63.3095C68.513 63.3095 67.543 60.8135 67.543 60.8135Z" fill="white"/>
        <path d="M68.0499 52.8375C68.0499 52.8375 65.4491 50.9701 63.168 52.8375H68.0499Z" fill="#1C2238"/>
        <path d="M68.0499 52.8375C68.0499 52.8375 65.4491 50.9701 63.168 52.8375" stroke="#1E0B02" stroke-width="0.96" stroke-linecap="round" stroke-linejoin="round"/>
        <path d="M82.2984 52.8378C82.2984 52.8378 80.4437 50.9236 77.9707 52.8378H82.2984Z" fill="#1C2238"/>
        <path d="M82.2984 52.8378C82.2984 52.8378 80.4437 50.9236 77.9707 52.8378" stroke="#1E0B02" stroke-width="0.96" stroke-linecap="round" stroke-linejoin="round"/>
        <path d="M54.1875 43.2375C54.1875 43.2375 71.1144 40.4037 74.6107 29.2746C74.6107 29.2746 56.5965 23.6444 54.1875 43.2375Z" fill="#2E0B02"/>
        <path d="M57.2305 37.2798C57.2305 37.2798 68.4334 25.7473 81.1392 28.6093C81.1392 28.6093 77.7389 45.1715 57.2305 37.2798Z" fill="#2E0B02"/>
        <path d="M78.8211 28.5247C78.8211 28.5247 94.5542 34.7085 95.0552 46.2411C95.0552 46.2411 76.0603 48.0709 78.8211 28.5247Z" fill="#2E0B02"/>
        <path d="M115.258 66.1343L114.277 67.0539C114.138 67.692 113.915 68.3207 113.605 68.9682C112.539 71.1733 110.61 73.1064 109.256 75.1989C106.485 79.4685 102.808 82.4619 97.2754 83.0719L95.6445 84.6108L105.813 92.9811L125.437 74.5139L115.268 66.1437L115.258 66.1343Z" fill="#D9D9D9"/>
    </g>
</svg>
