<svg width="45" height="45" viewBox="0 0 45 45" fill="none" xmlns="http://www.w3.org/2000/svg">
<path d="M22.4997 22.5002C19.5205 22.5002 16.9702 21.4394 14.8486 19.3179C12.7271 17.1963 11.6663 14.646 11.6663 11.6668C11.6663 8.68766 12.7271 6.13732 14.8486 4.01579C16.9702 1.89426 19.5205 0.833496 22.4997 0.833496C25.4788 0.833496 28.0292 1.89426 30.1507 4.01579C32.2722 6.13732 33.333 8.68766 33.333 11.6668C33.333 14.646 32.2722 17.1963 30.1507 19.3179C28.0292 21.4394 25.4788 22.5002 22.4997 22.5002ZM0.833008 44.1668V36.5835C0.833008 35.0488 1.22843 33.6386 2.01926 32.3531C2.81009 31.0675 3.85912 30.0853 5.16634 29.4064C7.96495 28.0071 10.8087 26.9581 13.6976 26.2593C16.5865 25.5606 19.5205 25.2103 22.4997 25.2085C25.4788 25.2067 28.4129 25.557 31.3018 26.2593C34.1906 26.9617 37.0344 28.0107 39.833 29.4064C41.142 30.0835 42.192 31.0657 42.9828 32.3531C43.7736 33.6404 44.1681 35.0506 44.1663 36.5835V44.1668H0.833008Z" fill="#444444"/>
</svg>
