<svg width="40" height="40" viewBox="0 0 40 40" fill="none" xmlns="http://www.w3.org/2000/svg">
<path d="M26.3333 35V31.6667C26.3333 29.8986 25.631 28.2029 24.3807 26.9526C23.1305 25.7024 21.4348 25 19.6667 25H9.66667C7.89856 25 6.20286 25.7024 4.95262 26.9526C3.70238 28.2029 3 29.8986 3 31.6667V35" stroke="#232323" stroke-width="2.5" stroke-linecap="round" stroke-linejoin="round"/>
<path d="M14.6667 18.3333C18.3486 18.3333 21.3333 15.3486 21.3333 11.6667C21.3333 7.98477 18.3486 5 14.6667 5C10.9848 5 8 7.98477 8 11.6667C8 15.3486 10.9848 18.3333 14.6667 18.3333Z" stroke="#232323" stroke-width="2.5" stroke-linecap="round" stroke-linejoin="round"/>
<path d="M36.333 34.9999V31.6666C36.3319 30.1894 35.8403 28.7545 34.9353 27.5871C34.0303 26.4196 32.7632 25.5858 31.333 25.2166M26.333 5.21655C27.767 5.58372 29.0381 6.41772 29.9457 7.58707C30.8534 8.75642 31.3461 10.1946 31.3461 11.6749C31.3461 13.1552 30.8534 14.5934 29.9457 15.7627C29.0381 16.9321 27.767 17.7661 26.333 18.1332" stroke="#232323" stroke-width="2.5" stroke-linecap="round" stroke-linejoin="round"/>
</svg>
