<svg width="24" height="24" viewBox="0 0 24 24" fill="none" xmlns="http://www.w3.org/2000/svg">
    <path d="M10.1053 0C7.32632 0 5.05263 2.27368 5.05263 5.05263C5.05263 7.83158 7.32632 10.1053 10.1053 10.1053C12.8842 10.1053 15.1579 7.83158 15.1579 5.05263C15.1579 2.27368 12.8842 0 10.1053 0ZM10.1053 2.52632C11.4947 2.52632 12.6316 3.66316 12.6316 5.05263C12.6316 6.4421 11.4947 7.57895 10.1053 7.57895C8.71579 7.57895 7.57895 6.4421 7.57895 5.05263C7.57895 3.66316 8.71579 2.52632 10.1053 2.52632ZM10.1053 11.3684C6.69474 11.3684 0 13.0105 0 16.4211V20.2105H12C11.6211 19.4526 11.4947 18.6947 11.3684 17.8105H2.4V16.4211C2.4 15.6632 6.31579 13.7684 10.1053 13.7684C10.7368 13.7684 11.3684 13.8947 12 13.8947C12.3789 13.1368 12.7579 12.3789 13.3895 11.7474C12.1263 11.4947 10.9895 11.3684 10.1053 11.3684ZM18.9474 20.2105C17.1789 20.2105 15.7895 18.8211 15.7895 17.0526C15.7895 16.5474 15.9158 16.0421 16.1684 15.6632L14.7789 14.2737C14.2737 15.0316 13.8947 16.0421 13.8947 17.0526C13.8947 19.8316 16.1684 22.1053 18.9474 22.1053V24L21.7263 21.2211L18.9474 18.3158V20.2105ZM18.9474 12V10.1053L16.1684 12.8842L18.9474 15.6632V13.8947C20.7158 13.8947 22.1053 15.2842 22.1053 17.0526C22.1053 17.5579 21.9789 18.0632 21.7263 18.4421L23.1158 19.8316C23.621 19.0737 24 18.0632 24 17.0526C24 14.2737 21.7263 12 18.9474 12Z" fill="#2F2F2F"/>
</svg>
