<svg width="26" height="24" viewBox="0 0 26 24" fill="none" xmlns="http://www.w3.org/2000/svg">
<path d="M17.8009 22.9995V20.5551C17.8009 19.2585 17.2952 18.0151 16.395 17.0983C15.4947 16.1814 14.2738 15.6664 13.0007 15.6664H5.80026C4.52715 15.6664 3.30619 16.1814 2.40596 17.0983C1.50574 18.0151 1 19.2585 1 20.5551V22.9995" stroke="white" stroke-width="2" stroke-linecap="round" stroke-linejoin="round"/>
<path d="M9.39987 10.7775C12.051 10.7775 14.2001 8.58871 14.2001 5.88873C14.2001 3.18876 12.051 1 9.39987 1C6.74876 1 4.59961 3.18876 4.59961 5.88873C4.59961 8.58871 6.74876 10.7775 9.39987 10.7775Z" stroke="white" stroke-width="2" stroke-linecap="round" stroke-linejoin="round"/>
<path d="M25.0012 23.0004V20.5561C25.0004 19.4729 24.6464 18.4207 23.9948 17.5646C23.3431 16.7085 22.4308 16.097 21.401 15.8262M17.8008 1.16003C18.8333 1.42928 19.7485 2.04086 20.4021 2.89836C21.0556 3.75585 21.4104 4.81049 21.4104 5.89599C21.4104 6.9815 21.0556 8.03614 20.4021 8.89363C19.7485 9.75113 18.8333 10.3627 17.8008 10.632" stroke="white" stroke-width="2" stroke-linecap="round" stroke-linejoin="round"/>
</svg>
